<svg width="278" height="233" viewBox="0 0 278 233" fill="none" xmlns="http://www.w3.org/2000/svg">
<path d="M119.77 14.697C118.994 12.3678 116.725 10.6841 114.042 10.6841C112.681 10.6841 111.431 11.1272 110.425 11.8551C109.965 11.4626 109.426 11.1525 108.834 10.95C108.498 7.72194 105.664 5.20914 102.225 5.20914C101.955 5.20914 101.692 5.22813 101.429 5.25978C99.6798 2.94953 96.8587 1.43679 93.6627 1.43679C92.6434 1.43679 91.6636 1.59502 90.7429 1.87352C89.2173 0.70257 87.2839 0 85.1796 0C81.4904 0 78.3208 2.15202 76.9529 5.2218C76.8609 5.2218 76.7688 5.20914 76.6702 5.20914C72.3037 5.20914 68.7526 8.51945 68.5553 12.6716C68.2462 12.6273 67.924 12.5956 67.6018 12.5956C64.1559 12.5956 61.3677 15.2856 61.3677 18.5959C61.3677 21.9063 64.1625 24.5963 67.6018 24.5963C68.3646 24.5963 69.088 24.457 69.7587 24.2165C70.127 28.4636 73.8162 31.7929 78.3208 31.7929C81.2471 31.7929 83.8249 30.3877 85.3769 28.242C86.5343 28.7611 87.8232 29.0585 89.1844 29.0585C89.5395 29.0585 89.8946 29.0332 90.2432 28.9952C91.6373 30.7928 93.86 31.9574 96.3655 31.9574C99.4628 31.9574 102.12 30.1852 103.323 27.6407C104.724 28.5395 106.407 29.0585 108.216 29.0585C110.813 29.0585 113.141 27.9762 114.759 26.2673C115.423 26.4888 116.14 26.6154 116.883 26.6154C120.486 26.6154 123.413 23.7988 123.413 20.3302C123.413 17.8554 121.927 15.7224 119.763 14.697H119.77Z" fill="white"/>
<path d="M272.788 108.552C271.834 105.71 269.072 103.653 265.804 103.653C264.147 103.653 262.621 104.191 261.391 105.083C260.832 104.602 260.175 104.222 259.452 103.982C259.037 100.045 255.585 96.9749 251.389 96.9749C251.06 96.9749 250.738 97.0002 250.423 97.0382C248.292 94.2216 244.846 92.3797 240.946 92.3797C239.704 92.3797 238.507 92.5696 237.382 92.9177C235.515 91.4873 233.16 90.6328 230.589 90.6328C226.085 90.6328 222.224 93.2595 220.554 97.0002C220.442 97.0002 220.331 96.9813 220.212 96.9813C214.886 96.9813 210.552 101.019 210.309 106.089C209.927 106.032 209.539 105.994 209.145 105.994C204.943 105.994 201.536 109.273 201.536 113.318C201.536 117.362 204.943 120.641 209.145 120.641C210.072 120.641 210.96 120.47 211.782 120.179C212.235 125.356 216.733 129.426 222.231 129.426C225.795 129.426 228.945 127.711 230.839 125.09C232.253 125.723 233.825 126.084 235.488 126.084C235.922 126.084 236.356 126.052 236.777 126.008C238.48 128.198 241.183 129.622 244.248 129.622C248.022 129.622 251.264 127.458 252.737 124.356C254.447 125.451 256.499 126.09 258.708 126.09C261.878 126.09 264.719 124.774 266.692 122.685C267.507 122.957 268.375 123.109 269.283 123.109C273.682 123.109 277.246 119.679 277.246 115.444C277.246 112.425 275.431 109.824 272.794 108.57L272.788 108.552Z" fill="white"/>
<path d="M71.3503 99.6266C70.3967 96.7847 67.6282 94.7213 64.3599 94.7213C62.6962 94.7213 61.1705 95.2593 59.9408 96.1517C59.3818 95.6707 58.7242 95.2909 57.9943 95.0441C57.58 91.1008 54.1276 88.0247 49.9189 88.0247C49.5901 88.0247 49.2678 88.05 48.9522 88.088C46.8216 85.2651 43.3691 83.4232 39.4629 83.4232C38.2201 83.4232 37.0232 83.6131 35.8921 83.9612C34.0245 82.5307 31.6637 81.6699 29.0925 81.6699C24.5813 81.6699 20.7146 84.2966 19.0377 88.05C18.9259 88.05 18.8141 88.031 18.6957 88.031C13.3626 88.031 9.02236 92.0756 8.77904 97.1518C8.39763 97.0948 8.00964 97.0568 7.61508 97.0568C3.4064 97.0568 0 100.342 0 104.386C0 108.431 3.41298 111.716 7.61508 111.716C8.5423 111.716 9.43007 111.545 10.2521 111.254C10.7058 116.438 15.2104 120.514 20.7146 120.514C24.2854 120.514 27.4353 118.792 29.3358 116.172C30.7497 116.805 32.3279 117.166 33.9917 117.166C34.4323 117.166 34.8597 117.134 35.2806 117.09C36.9838 119.28 39.6931 120.71 42.7575 120.71C46.5388 120.71 49.7874 118.545 51.2538 115.438C52.9702 116.533 55.0219 117.172 57.2315 117.172C60.4011 117.172 63.2486 115.849 65.2279 113.76C66.0434 114.032 66.9114 114.184 67.8189 114.184C72.2249 114.184 75.7957 110.747 75.7957 106.507C75.7957 103.488 73.9741 100.88 71.3371 99.6266H71.3503Z" fill="white"/>
<g clip-path="url(#clip0_2332_8962)">
<path d="M254.934 217.531H22.306C17.8678 217.531 14.27 220.994 14.27 225.266C14.27 229.538 17.8678 233 22.306 233H254.934C259.372 233 262.97 229.538 262.97 225.266C262.97 220.994 259.372 217.531 254.934 217.531Z" fill="#C7E2E0"/>
<path d="M119.769 14.697C118.993 12.3678 116.724 10.6841 114.041 10.6841C112.68 10.6841 111.431 11.1272 110.425 11.8551C109.964 11.4626 109.425 11.1525 108.833 10.95C108.498 7.72194 105.664 5.20914 102.224 5.20914C101.955 5.20914 101.692 5.22813 101.429 5.25978C99.6793 2.94953 96.8582 1.43679 93.6622 1.43679C92.6429 1.43679 91.6631 1.59502 90.7424 1.87352C89.2168 0.70257 87.2834 0 85.1791 0C81.4899 0 78.3203 2.15202 76.9525 5.2218C76.8604 5.2218 76.7683 5.20914 76.6697 5.20914C72.3032 5.20914 68.7521 8.51945 68.5548 12.6716C68.2457 12.6273 67.9235 12.5956 67.6013 12.5956C64.1554 12.5956 61.3672 15.2856 61.3672 18.5959C61.3672 21.9063 64.162 24.5963 67.6013 24.5963C68.3641 24.5963 69.0875 24.457 69.7582 24.2165C70.1265 28.4636 73.8157 31.7929 78.3203 31.7929C81.2466 31.7929 83.8244 30.3877 85.3764 28.242C86.5338 28.7611 87.8227 29.0585 89.1839 29.0585C89.539 29.0585 89.8941 29.0332 90.2427 28.9952C91.6368 30.7928 93.8595 31.9574 96.365 31.9574C99.4623 31.9574 102.119 30.1852 103.322 27.6407C104.723 28.5395 106.407 29.0585 108.215 29.0585C110.813 29.0585 113.141 27.9762 114.758 26.2673C115.422 26.4888 116.139 26.6154 116.882 26.6154C120.486 26.6154 123.412 23.7988 123.412 20.3302C123.412 17.8554 121.926 15.7224 119.763 14.697H119.769Z" fill="white"/>
<path d="M272.788 108.552C271.834 105.71 269.072 103.653 265.804 103.653C264.147 103.653 262.621 104.191 261.391 105.083C260.832 104.602 260.175 104.222 259.452 103.982C259.037 100.045 255.585 96.9749 251.389 96.9749C251.06 96.9749 250.738 97.0002 250.423 97.0382C248.292 94.2216 244.846 92.3797 240.946 92.3797C239.704 92.3797 238.507 92.5696 237.382 92.9177C235.515 91.4873 233.16 90.6328 230.589 90.6328C226.085 90.6328 222.224 93.2595 220.554 97.0002C220.442 97.0002 220.331 96.9813 220.212 96.9813C214.886 96.9813 210.552 101.019 210.309 106.089C209.927 106.032 209.539 105.994 209.145 105.994C204.943 105.994 201.536 109.273 201.536 113.318C201.536 117.362 204.943 120.641 209.145 120.641C210.072 120.641 210.96 120.47 211.782 120.179C212.235 125.356 216.733 129.426 222.231 129.426C225.795 129.426 228.945 127.711 230.839 125.09C232.253 125.723 233.825 126.084 235.488 126.084C235.922 126.084 236.356 126.052 236.777 126.008C238.48 128.198 241.183 129.622 244.248 129.622C248.022 129.622 251.264 127.458 252.737 124.356C254.447 125.451 256.499 126.09 258.708 126.09C261.878 126.09 264.719 124.774 266.692 122.685C267.507 122.957 268.375 123.109 269.283 123.109C273.682 123.109 277.246 119.679 277.246 115.444C277.246 112.425 275.431 109.824 272.794 108.57L272.788 108.552Z" fill="white"/>
<path d="M71.3503 99.6266C70.3967 96.7847 67.6282 94.7213 64.3599 94.7213C62.6962 94.7213 61.1705 95.2593 59.9408 96.1517C59.3818 95.6707 58.7242 95.2909 57.9943 95.0441C57.58 91.1008 54.1276 88.0247 49.9189 88.0247C49.5901 88.0247 49.2678 88.05 48.9522 88.088C46.8216 85.2651 43.3691 83.4232 39.4629 83.4232C38.2201 83.4232 37.0232 83.6131 35.8921 83.9612C34.0245 82.5307 31.6637 81.6699 29.0925 81.6699C24.5813 81.6699 20.7146 84.2966 19.0377 88.05C18.9259 88.05 18.8141 88.031 18.6957 88.031C13.3626 88.031 9.02236 92.0756 8.77904 97.1518C8.39763 97.0948 8.00964 97.0568 7.61508 97.0568C3.4064 97.0568 0 100.342 0 104.386C0 108.431 3.41298 111.716 7.61508 111.716C8.5423 111.716 9.43007 111.545 10.2521 111.254C10.7058 116.438 15.2104 120.514 20.7146 120.514C24.2854 120.514 27.4353 118.792 29.3358 116.172C30.7497 116.805 32.3279 117.166 33.9917 117.166C34.4323 117.166 34.8597 117.134 35.2806 117.09C36.9838 119.28 39.6931 120.71 42.7575 120.71C46.5388 120.71 49.7874 118.545 51.2538 115.438C52.9702 116.533 55.0219 117.172 57.2315 117.172C60.4011 117.172 63.2486 115.849 65.2279 113.76C66.0434 114.032 66.9114 114.184 67.8189 114.184C72.2249 114.184 75.7957 110.747 75.7957 106.507C75.7957 103.488 73.9741 100.88 71.3371 99.6266H71.3503Z" fill="white"/>
<g clip-path="url(#clip1_2332_8962)">
<path d="M254.934 217.531H22.306C17.8678 217.531 14.27 220.994 14.27 225.266C14.27 229.538 17.8678 233 22.306 233H254.934C259.372 233 262.97 229.538 262.97 225.266C262.97 220.994 259.372 217.531 254.934 217.531Z" fill="#FAFBFD"/>
<path d="M119.769 14.697C118.993 12.3678 116.724 10.6841 114.041 10.6841C112.68 10.6841 111.431 11.1272 110.425 11.8551C109.964 11.4626 109.425 11.1525 108.833 10.95C108.498 7.72194 105.664 5.20914 102.224 5.20914C101.955 5.20914 101.692 5.22813 101.429 5.25978C99.6793 2.94953 96.8582 1.43679 93.6622 1.43679C92.6429 1.43679 91.6631 1.59502 90.7424 1.87352C89.2168 0.70257 87.2834 0 85.1791 0C81.4899 0 78.3203 2.15202 76.9525 5.2218C76.8604 5.2218 76.7683 5.20914 76.6697 5.20914C72.3032 5.20914 68.7521 8.51945 68.5548 12.6716C68.2457 12.6273 67.9235 12.5956 67.6013 12.5956C64.1554 12.5956 61.3672 15.2856 61.3672 18.5959C61.3672 21.9063 64.162 24.5963 67.6013 24.5963C68.3641 24.5963 69.0875 24.457 69.7582 24.2165C70.1265 28.4636 73.8157 31.7929 78.3203 31.7929C81.2466 31.7929 83.8244 30.3877 85.3764 28.242C86.5338 28.7611 87.8227 29.0585 89.1839 29.0585C89.539 29.0585 89.8941 29.0332 90.2427 28.9952C91.6368 30.7928 93.8595 31.9574 96.365 31.9574C99.4623 31.9574 102.119 30.1852 103.322 27.6407C104.723 28.5395 106.407 29.0585 108.215 29.0585C110.813 29.0585 113.141 27.9762 114.758 26.2673C115.422 26.4888 116.139 26.6154 116.882 26.6154C120.486 26.6154 123.412 23.7988 123.412 20.3302C123.412 17.8554 121.926 15.7224 119.763 14.697H119.769Z" fill="white"/>
<path d="M272.788 108.552C271.834 105.71 269.072 103.653 265.804 103.653C264.147 103.653 262.621 104.191 261.391 105.083C260.832 104.602 260.175 104.222 259.452 103.982C259.037 100.045 255.585 96.9749 251.389 96.9749C251.06 96.9749 250.738 97.0002 250.423 97.0382C248.292 94.2216 244.846 92.3797 240.946 92.3797C239.704 92.3797 238.507 92.5696 237.382 92.9177C235.515 91.4873 233.16 90.6328 230.589 90.6328C226.085 90.6328 222.224 93.2595 220.554 97.0002C220.442 97.0002 220.331 96.9813 220.212 96.9813C214.886 96.9813 210.552 101.019 210.309 106.089C209.927 106.032 209.539 105.994 209.145 105.994C204.943 105.994 201.536 109.273 201.536 113.318C201.536 117.362 204.943 120.641 209.145 120.641C210.072 120.641 210.96 120.47 211.782 120.179C212.235 125.356 216.733 129.426 222.231 129.426C225.795 129.426 228.945 127.711 230.839 125.09C232.253 125.723 233.825 126.084 235.488 126.084C235.922 126.084 236.356 126.052 236.777 126.008C238.48 128.198 241.183 129.622 244.248 129.622C248.022 129.622 251.264 127.458 252.737 124.356C254.447 125.451 256.499 126.09 258.708 126.09C261.878 126.09 264.719 124.774 266.692 122.685C267.507 122.957 268.375 123.109 269.283 123.109C273.682 123.109 277.246 119.679 277.246 115.444C277.246 112.425 275.431 109.824 272.794 108.57L272.788 108.552Z" fill="white"/>
<path d="M71.3503 99.6266C70.3967 96.7847 67.6282 94.7213 64.3599 94.7213C62.6962 94.7213 61.1705 95.2593 59.9408 96.1517C59.3818 95.6707 58.7242 95.2909 57.9943 95.0441C57.58 91.1008 54.1276 88.0247 49.9189 88.0247C49.5901 88.0247 49.2678 88.05 48.9522 88.088C46.8216 85.2651 43.3691 83.4232 39.4629 83.4232C38.2201 83.4232 37.0232 83.6131 35.8921 83.9612C34.0245 82.5307 31.6637 81.6699 29.0925 81.6699C24.5813 81.6699 20.7146 84.2966 19.0377 88.05C18.9259 88.05 18.8141 88.031 18.6957 88.031C13.3626 88.031 9.02236 92.0756 8.77904 97.1518C8.39763 97.0948 8.00964 97.0568 7.61508 97.0568C3.4064 97.0568 0 100.342 0 104.386C0 108.431 3.41298 111.716 7.61508 111.716C8.5423 111.716 9.43007 111.545 10.2521 111.254C10.7058 116.438 15.2104 120.514 20.7146 120.514C24.2854 120.514 27.4353 118.792 29.3358 116.172C30.7497 116.805 32.3279 117.166 33.9917 117.166C34.4323 117.166 34.8597 117.134 35.2806 117.09C36.9838 119.28 39.6931 120.71 42.7575 120.71C46.5388 120.71 49.7874 118.545 51.2538 115.438C52.9702 116.533 55.0219 117.172 57.2315 117.172C60.4011 117.172 63.2486 115.849 65.2279 113.76C66.0434 114.032 66.9114 114.184 67.8189 114.184C72.2249 114.184 75.7957 110.747 75.7957 106.507C75.7957 103.488 73.9741 100.88 71.3371 99.6266H71.3503Z" fill="white"/>
<path d="M208.119 223.353L68.2461 222.726C64.432 222.707 61.3544 219.719 61.3741 216.048L62.183 49.2355C62.2027 45.5644 65.3066 42.6022 69.1207 42.6212L208.994 43.2478C212.808 43.2668 215.885 46.2543 215.866 49.9254L215.057 216.738C215.037 220.409 211.933 223.372 208.119 223.353Z" fill="#ADBEE9"/>
<path d="M207.776 51.1869L67.3125 50.5498L66.4888 218.798L206.952 219.435L207.776 51.1869Z" fill="#8096C1"/>
<path d="M207.785 49.1814L70.2681 48.5576L69.4443 216.805L206.961 217.429L207.785 49.1814Z" fill="white"/>
<path d="M193.081 99.5459H173.682V80.874H193.081V99.5459ZM174.813 98.4573H191.957V81.9564H174.813V98.4573Z" fill="#D1DBDB"/>
<path d="M125.703 80.874H85.3979V84.5071H125.703V80.874Z" fill="#ADBEE9"/>
<path d="M162.444 88.3945H85.3984V89.6288H162.444V88.3945Z" fill="#D1DBDB"/>
<path d="M162.444 93.3506H85.3984V94.5848H162.444V93.3506Z" fill="#D1DBDB"/>
<path d="M162.444 98.3125H85.3984V99.5467H162.444V98.3125Z" fill="#D1DBDB"/>
<path d="M193.082 136.221H173.682V117.549H193.082V136.221ZM174.813 135.132H191.957V118.631H174.813V135.132Z" fill="#D1DBDB"/>
<path d="M125.702 117.549H85.3975V121.182H125.702V117.549Z" fill="#ADBEE9"/>
<path d="M162.443 125.066H85.3979V126.301H162.443V125.066Z" fill="#D1DBDB"/>
<path d="M162.443 130.022H85.3979V131.257H162.443V130.022Z" fill="#D1DBDB"/>
<path d="M162.443 134.978H85.3979V136.212H162.443V134.978Z" fill="#D1DBDB"/>
<path d="M193.082 172.893H173.682V154.221H193.082V172.893ZM174.813 171.804H191.957V155.303H174.813V171.804Z" fill="#D1DBDB"/>
<path d="M125.702 154.221H85.3975V157.854H125.702V154.221Z" fill="#ADBEE9"/>
<path d="M162.443 161.741H85.3975V162.975H162.443V161.741Z" fill="#D1DBDB"/>
<path d="M162.443 166.696H85.3975V167.931H162.443V166.696Z" fill="#D1DBDB"/>
<path d="M162.443 171.652H85.3975V172.887H162.443V171.652Z" fill="#D1DBDB"/>
<path d="M172.99 85.3634C172.99 85.3634 179.33 88.9775 182.979 95.9589C182.979 95.9589 191.489 82.8949 200.866 79.6795L198.433 76.5654C198.433 76.5654 190.358 81.2492 183.407 92.9018C183.407 92.9018 180.625 86.2622 175.68 82.3316L172.99 85.3634Z" fill="#9BA4A7"/>
<path d="M177.442 121.342C177.442 121.342 183.781 124.956 187.431 131.937C187.431 131.937 195.94 118.873 205.318 115.658L202.885 112.544C202.885 112.544 194.809 117.228 187.858 128.88C187.858 128.88 185.077 122.241 180.132 118.31L177.442 121.342Z" fill="#9BA4A7"/>
<path d="M205.719 141.683C205.719 141.683 197.808 130.315 193.567 127.568C193.567 127.568 191.489 129.765 190.778 131.48C190.778 131.48 198.689 140.917 200.471 144.348L205.719 141.689V141.683Z" fill="#9BA4A7"/>
<path d="M217.155 221.929C217.155 221.929 216.425 223.827 214.268 225.771C212.111 227.714 210.836 229.302 211.835 229.701C212.835 230.1 220.825 227.593 222.699 226.853C224.58 226.112 226.013 226.03 222.482 220.536L217.149 221.922L217.155 221.929Z" fill="#9BA4A7"/>
<path d="M208.126 181.102C208.126 181.102 204.851 203.971 217.155 221.927L222.488 220.541C222.488 220.541 213.551 199.394 215.768 187.02L218.977 186.546C218.977 186.546 224.948 202.11 249.549 202.11V196.483C249.549 196.483 225.211 196.901 225.487 175.374L208.126 181.102Z" fill="#4E4C4C"/>
<path d="M219.068 221.426C207.494 206.267 212.157 180.518 212.157 180.518V179.771L208.126 181.101C208.126 181.101 204.851 203.969 217.155 221.926L219.075 221.426H219.068Z" fill="#4E4C4C"/>
<path d="M249.548 199.532C231.582 201.203 221.902 187.101 221.902 187.101C223.382 185.025 222.941 181.468 222.941 181.468C222.106 183.841 215.767 187.012 215.767 187.012L218.976 186.538C218.976 186.538 224.947 202.102 249.548 202.102V199.526V199.532Z" fill="#4E4C4C"/>
<path d="M206.278 157.087C206.278 157.087 199.926 163.986 183.578 170.253L185.412 173.829C185.412 173.829 199.459 172.031 206.278 164.683C206.278 164.683 206.186 175.322 208.133 181.095C208.133 181.095 223.139 179.475 225.493 175.367C225.493 175.367 219.102 158.6 212.519 151.271L206.285 157.081L206.278 157.087Z" fill="#9BA4A7"/>
<path d="M205.318 156.001C209.789 156.001 213.413 152.513 213.413 148.21C213.413 143.906 209.789 140.418 205.318 140.418C200.847 140.418 197.223 143.906 197.223 148.21C197.223 152.513 200.847 156.001 205.318 156.001Z" fill="#FFC99C"/>
<path d="M249.548 202.111C249.548 202.111 251.79 203.282 253.98 205.01C256.17 206.738 257.906 209.283 258.366 207.732C258.827 206.181 255.696 198.352 255.124 196.491C254.756 195.294 249.548 196.491 249.548 196.491V202.118V202.111Z" fill="#9BA4A7"/>
<path d="M197.427 146.469C197.427 146.469 198.051 148.209 201.681 148.209C205.311 148.209 207.712 148.962 208.027 150.69C208.027 150.69 209.165 149.133 209.875 149.222C210.585 149.311 210.539 152.165 209.033 152.558L211.473 153.564C211.473 153.564 214.972 149.317 213.407 144.209C212.243 140.424 209.237 140.424 209.237 140.424C209.237 140.424 205.844 138.038 202.674 139.196C199.505 140.354 196.572 144.386 195.533 142.399C195.533 142.399 195.086 146.443 197.42 146.475L197.427 146.469Z" fill="#4E4C4C"/>
<path d="M183.577 170.254C183.577 170.254 180.224 168.235 178.81 168.742C177.396 169.242 181.197 171.134 181.197 171.134C181.197 171.134 177.231 173.932 175.311 174.907C173.391 175.888 180.105 177.698 185.419 173.831L183.584 170.254H183.577Z" fill="#FFC99C"/>
<path d="M190.779 131.481C190.779 131.481 185.827 131.778 185.255 131.012C184.683 130.246 187.142 129.702 188.911 129.696C188.911 129.696 190.601 122.892 192.107 122.366C195.119 121.309 193.567 127.575 193.567 127.575C193.567 127.575 191.186 130.519 190.779 131.487V131.481Z" fill="#FFC99C"/>
<path d="M197.427 146.469C197.427 146.469 198.052 148.209 201.682 148.209C205.312 148.209 207.712 148.963 208.028 150.69C208.028 150.69 209.165 149.133 209.876 149.222C210.586 149.311 210.54 152.165 209.034 152.558L211.473 153.564C211.473 153.564 212.578 152.222 213.269 150.146C213.19 148.937 213.058 147.779 212.848 147.171C212.295 145.576 210.974 146.216 208.988 146.216C207.002 146.216 207.114 143.456 207.114 143.456C207.114 143.456 204.687 145.899 201.379 145.791C198.801 145.709 196.704 143.696 195.895 142.81C195.757 142.722 195.638 142.589 195.54 142.393C195.54 142.393 195.093 146.437 197.427 146.469Z" fill="#4E4C4C"/>
<path d="M208.441 159.861C208.441 159.861 207.56 160.975 199.399 166.19C194.592 169.266 188.601 171.064 184.485 172.032L185.412 173.83C185.412 173.83 199.459 172.032 206.278 164.684C206.278 164.684 206.186 175.324 208.132 181.096C208.132 181.096 209.829 180.913 212.163 180.514C208.553 171.463 208.448 159.854 208.448 159.854L208.441 159.861Z" fill="#9BA4A7"/>
<path d="M219.239 224.498C219.733 223.903 219.522 222.694 219.069 221.428L217.148 221.928C217.148 221.928 216.418 223.827 214.261 225.77C212.104 227.713 210.829 229.302 211.828 229.7C212.118 229.814 212.999 229.688 214.15 229.428C215.491 226.744 218.22 225.706 219.233 224.498H219.239Z" fill="#9BA4A7"/>
<path d="M258.366 207.724C258.504 207.262 258.32 206.256 257.992 205.015C256.078 203.408 253.579 201.332 252.632 200.604C252.145 200.23 250.968 199.863 249.548 199.534V202.11C249.548 202.11 251.79 203.281 253.98 205.009C256.17 206.737 257.906 209.282 258.366 207.731V207.724Z" fill="#9BA4A7"/>
<path d="M143.154 32.9395C143.154 32.9395 164.507 37.0283 171.622 61.3587H166.986C166.986 61.3587 159.055 44.2945 148.04 42.94H120.776C120.776 42.94 126.773 35.2814 134.96 34.1104L143.148 32.9395H143.154Z" fill="#9BA4A7"/>
<path d="M162.081 50.7502C155.879 44.0473 151.684 40.5597 147.206 40.2876C142.721 40.0091 138.334 40.3825 136.335 38.0849C135.415 37.0279 134.474 35.5911 133.731 34.3379C126.189 36.0468 120.79 42.9333 120.79 42.9333H148.054C159.069 44.2878 167 61.352 167 61.352H168.459C167.48 58.5671 165.592 54.5352 162.087 50.7502H162.081Z" fill="#9BA4A7"/>
<path d="M147.64 31.1214C147.357 31.0201 147.054 31.0265 146.772 31.1214C146.772 31.1214 146.772 31.1151 146.772 31.1088C146.772 26.6718 143.036 23.083 138.433 23.083C133.83 23.083 130.095 26.6781 130.095 31.1088C130.095 31.1088 130.095 31.1151 130.095 31.1214C129.812 31.0328 129.516 31.0265 129.227 31.1214C128.477 31.3873 128.128 32.2924 128.451 33.1468C128.773 34.0013 129.648 34.476 130.404 34.2102C130.502 34.1722 130.594 34.1279 130.687 34.0646C131.91 37.0331 134.915 39.1282 138.433 39.1282C141.951 39.1282 144.957 37.0268 146.18 34.0646C146.265 34.1216 146.357 34.1722 146.463 34.2102C147.212 34.476 148.087 34.0013 148.416 33.1468C148.738 32.2924 148.396 31.3873 147.64 31.1214Z" fill="#FFC99C"/>
<path d="M132.462 29.883C132.462 27.5474 133.402 25.4271 134.928 23.832C132.074 25.1106 130.095 27.8829 130.095 31.1109C130.095 31.1109 130.095 31.1172 130.095 31.1236C129.812 31.035 129.516 31.0286 129.227 31.1236C128.477 31.3894 128.128 32.2945 128.451 33.149C128.773 34.0035 129.648 34.4782 130.404 34.2123C130.502 34.1744 130.594 34.1301 130.687 34.0731C131.91 37.0416 134.915 39.1367 138.433 39.1367C139.281 39.1367 140.097 39.0101 140.866 38.7885C136.151 38.3581 132.462 34.5415 132.462 29.8893V29.883Z" fill="#EAAE81"/>
<path d="M140.872 26.3879C140.872 26.3879 137.999 30.6666 133.888 31.1033L134.783 28.7994C134.783 28.7994 131.179 29.9767 130.706 32.2932C130.706 32.2932 129.903 31.1603 129.239 31.1223C129.239 31.1223 128.345 19.3242 140.103 20.9382L139.439 19.6533C139.439 19.6533 143.93 20.0521 145.37 23.989C145.37 23.989 148.264 24.9764 147.652 31.1286C147.652 31.1286 146.863 30.7299 146.133 31.7869C146.133 31.7869 145.232 26.9195 140.885 26.3942L140.872 26.3879Z" fill="#4E4C4C"/>
<path d="M166.986 61.352C166.986 61.352 165.73 64.1243 165.934 64.9472C166.131 65.77 167.354 65.2826 168.025 63.8458C168.025 63.8458 169.951 63.9534 170.984 65.8776C172.016 67.8018 172.865 69.2259 173.325 68.017C173.779 66.808 174.318 64.6687 171.622 61.3457H166.986V61.352Z" fill="#FFC99C"/>
<path d="M123.505 42.3201C123.505 42.3201 118.264 41.5163 117.962 42.5859C117.659 43.6556 117.343 45.5671 118.435 45.9216C119.527 46.2697 124.873 46.2634 125.07 45.1684C125.268 44.0734 125.504 42.548 123.505 42.3201Z" fill="#FFC99C"/>
<path d="M138.433 25.2732C135.414 24.9631 132.389 25.9695 132.389 25.9695C134.066 22.5199 136.664 21.2224 137.828 20.792C128.457 20.9059 129.226 31.1217 129.226 31.1217C129.89 31.166 130.693 32.2926 130.693 32.2926C131.166 29.976 134.77 28.7988 134.77 28.7988L133.876 31.1027C137.4 29.1469 138.426 25.2732 138.426 25.2732H138.433Z" fill="#4E4C4C"/>
<path d="M133.808 216.043L124.74 214.321V213.467L122.497 213.891L120.248 213.467V214.321L111.186 216.043C111.186 216.043 98.6722 219.847 99.2509 225.208C99.7836 230.12 114.027 231.556 122.491 229.164C130.954 231.556 145.198 230.12 145.731 225.208C146.309 219.853 133.795 216.043 133.795 216.043H133.808Z" fill="#4E4C4C"/>
<path d="M145.744 225.208C145.758 225.075 145.758 224.942 145.758 224.809C141.95 227.948 132.441 227.505 131.56 224.676C130.613 221.625 135.676 220.701 135.676 220.701C135.676 220.701 124.826 220.701 120.795 220.701C116.764 220.701 113.239 221.53 113.239 221.53L122.511 223.043L125.214 226.986C125.214 226.986 104.177 225.872 104.368 223.043C104.559 220.207 119.776 214.416 119.776 214.416L111.181 216.049C111.181 216.049 98.6664 219.853 99.2451 225.214C99.7777 230.126 114.021 231.563 122.485 229.17C130.948 231.563 145.192 230.126 145.725 225.214L145.744 225.208Z" fill="#4E4C4C"/>
<path d="M160.58 184.275L159.955 182.396C159.955 182.396 157.581 179.149 158.449 178.364C159.317 177.579 159.383 179.516 161.191 180.218C163 180.921 170.483 177.389 170.957 178.655C171.378 179.775 164.979 182.396 163.006 184.763L160.573 184.269L160.58 184.275Z" fill="#FFC99C"/>
<path d="M121.991 189.162C121.991 189.162 113.179 192.162 111.982 192.922C110.161 194.086 103.072 207.916 103.821 209.904C105.275 213.752 117.322 215.575 117.322 215.575H132.605L135.045 197.207C135.045 197.207 148.861 197.441 150.281 197.219C153.648 196.694 162.993 184.769 162.993 184.769C162.993 184.769 160.849 182.218 159.935 182.402C159.935 182.402 149.821 191.858 148.361 192.035C146.901 192.213 125.542 189.206 124.332 189.181C123.122 189.156 121.971 189.162 121.971 189.162H121.991Z" fill="#9BA4A7"/>
<path d="M112.449 192.68C112.245 192.775 112.088 192.857 111.982 192.92C110.161 194.085 103.072 207.915 103.821 209.902C104.558 211.864 108.043 213.295 111.292 214.231L112.403 212.035C112.403 212.035 105.689 208.421 106.123 207.218C106.511 206.155 111.068 195.648 112.449 192.68Z" fill="#9BA4A7"/>
<path d="M124.93 189.092C124.93 190.193 123.838 191.079 122.497 191.079C121.155 191.079 120.063 190.187 120.063 189.092C120.063 187.997 121.155 187.104 122.497 187.104C123.838 187.104 124.93 187.997 124.93 189.092Z" fill="#D89A71"/>
<path d="M131.717 181.167C131.434 181.066 131.132 181.072 130.849 181.167C130.849 181.167 130.849 181.161 130.849 181.155C130.849 176.718 127.114 173.129 122.51 173.129C117.907 173.129 114.172 176.724 114.172 181.155C114.172 181.155 114.172 181.161 114.172 181.167C113.889 181.079 113.593 181.072 113.304 181.167C112.554 181.433 112.206 182.338 112.528 183.193C112.85 184.047 113.725 184.522 114.481 184.256C114.58 184.218 114.672 184.174 114.764 184.117C115.987 187.085 118.992 189.18 122.51 189.18C126.028 189.18 129.034 187.079 130.257 184.117C130.342 184.174 130.434 184.224 130.54 184.256C131.289 184.522 132.164 184.047 132.493 183.193C132.815 182.338 132.473 181.433 131.717 181.167Z" fill="#FFC99C"/>
<path d="M125.701 188.37C119.855 188.37 115.113 183.806 115.113 178.179C115.113 177.901 115.133 177.629 115.159 177.356C114.528 178.483 114.166 179.774 114.166 181.148C114.166 181.148 114.166 181.154 114.166 181.16C113.884 181.072 113.588 181.066 113.298 181.16C112.549 181.426 112.2 182.331 112.522 183.186C112.845 184.04 113.719 184.515 114.476 184.249C114.574 184.211 114.666 184.167 114.758 184.11C115.981 187.079 118.987 189.174 122.505 189.174C123.833 189.174 125.089 188.876 126.201 188.338C126.03 188.344 125.865 188.363 125.694 188.363L125.701 188.37Z" fill="#EAB186"/>
<path d="M117.934 177.268C117.934 177.268 119.078 179.395 124.306 179.224C129.534 179.053 130.139 180.686 130.198 182.401C130.198 182.401 130.454 181.18 131.717 181.167C131.717 181.167 132.408 176.458 128.383 173.705C122.3 169.54 117.217 174.243 117.217 174.243C117.217 174.243 112.627 175.312 113.311 181.173C113.311 181.173 114.573 181.135 114.994 182.066C114.994 182.066 115.172 178.623 117.94 177.274L117.934 177.268Z" fill="#4E4C4C"/>
<path d="M135.32 199.881H109.7C109.47 199.881 109.253 199.931 109.049 200.039C108.602 200.273 108.319 200.716 108.319 201.21V214.249C108.319 214.736 108.595 215.186 109.049 215.42C109.246 215.521 109.47 215.578 109.7 215.578H135.32C135.787 215.578 136.214 215.356 136.471 214.983C136.622 214.768 136.695 214.515 136.695 214.255V201.216C136.695 200.862 136.55 200.526 136.293 200.28C136.037 200.026 135.688 199.894 135.32 199.894V199.881Z" fill="#D1DBDB"/>
<path d="M136.274 217.166H108.746C108.674 217.166 108.602 217.147 108.536 217.109C108.404 217.033 108.319 216.894 108.319 216.736V215.989C108.319 215.869 108.365 215.767 108.444 215.685C108.523 215.609 108.628 215.559 108.746 215.559H136.274C136.392 215.559 136.497 215.609 136.576 215.685C136.655 215.761 136.701 215.869 136.701 215.989V216.736C136.701 216.837 136.662 216.932 136.602 217.008C136.524 217.103 136.405 217.16 136.274 217.16V217.166Z" fill="#ADBEE9"/>
<path d="M122.497 210.338C123.997 210.338 125.213 209.167 125.213 207.723C125.213 206.28 123.997 205.109 122.497 205.109C120.997 205.109 119.781 206.28 119.781 207.723C119.781 209.167 120.997 210.338 122.497 210.338Z" fill="white"/>
<path d="M122.498 229.164C122.498 229.164 124.76 228.581 126.713 231.006C128.659 233.43 131.395 233.43 131.553 232.158C131.711 230.892 128.824 226.423 127.837 225.208C126.851 223.993 125.74 222.6 124.931 223.176C124.128 223.752 122.511 223.644 122.511 223.644C122.511 223.644 123.504 225.455 122.498 229.164Z" fill="#9BA4A7"/>
<path d="M125.351 177.932C121.379 178.356 119.229 175.812 119.229 175.812C116.69 176.344 115.257 177.673 115.257 177.673C115.71 176.078 116.368 174.951 116.736 174.4C115.585 174.862 112.758 176.476 113.304 181.167C113.304 181.167 114.566 181.129 114.987 182.059C114.987 182.059 115.165 178.616 117.933 177.268C117.933 177.268 119.077 179.394 124.305 179.223C129.533 179.053 130.138 180.686 130.197 182.401C130.546 179.844 129.316 177.514 125.351 177.939V177.932Z" fill="#4E4C4C"/>
<path d="M150.295 197.218C153.662 196.693 163.007 184.768 163.007 184.768C163.007 184.768 162.638 184.331 162.145 183.831C159.015 187.268 151.216 195.73 150.229 195.971C148.993 196.268 135.295 195.395 135.295 195.395L135.052 197.205C135.052 197.205 148.868 197.439 150.288 197.218H150.295Z" fill="#9BA4A7"/>
<path d="M126.713 231.006C128.659 233.43 131.395 233.43 131.553 232.158C131.572 231.987 131.539 231.752 131.46 231.487C131.059 231.569 130.579 231.601 130.04 231.487C128.547 231.183 128.001 229.069 126.443 228.018C125.674 227.499 124.201 227.176 122.905 226.986C122.846 227.619 122.727 228.341 122.504 229.164C122.504 229.164 124.766 228.581 126.719 231.006H126.713Z" fill="#9BA4A7"/>
<path d="M153.018 168.661C153.018 168.661 159.357 172.275 163.007 179.257C163.007 179.257 171.516 166.193 180.894 162.977L178.46 159.863C178.46 159.863 170.385 164.547 163.434 176.2C163.434 176.2 160.652 169.56 155.707 165.629L153.018 168.661Z" fill="#9BA4A7"/>
<path d="M30.7622 206.441L35.4443 219.967C35.4443 221.202 37.9235 222.195 40.9814 222.195C44.0392 222.195 46.5184 221.195 46.5184 219.967L51.2006 206.441H30.749H30.7622Z" fill="#ADBEE9"/>
<path d="M51.2064 206.442C51.2064 207.676 46.6295 208.67 40.9807 208.67C35.3318 208.67 30.7549 207.67 30.7549 206.442C30.7549 205.214 35.3318 204.214 40.9807 204.214C46.6295 204.214 51.2064 205.214 51.2064 206.442Z" fill="#8096C1"/>
<path d="M32.1304 207.555C33.8993 208.22 37.2005 208.669 40.9818 208.669C44.763 208.669 48.0642 208.22 49.8331 207.555C48.0642 206.891 44.763 206.441 40.9818 206.441C37.2005 206.441 33.8993 206.891 32.1304 207.555Z" fill="white"/>
<path d="M34.7078 219.848C32.0445 219.848 29.6377 218.069 29.0393 215.468C28.3488 212.461 30.3282 209.474 33.4518 208.803L33.7346 210.037C31.3146 210.55 29.7824 212.866 30.3216 215.189C30.8543 217.518 33.2545 218.993 35.6745 218.474L35.9573 219.708C35.5364 219.797 35.1156 219.841 34.7013 219.841L34.7078 219.848Z" fill="#ADBEE9"/>
<path d="M39.1003 190.185C39.1792 190.046 38.9754 189.875 38.8636 190.008C38.0481 190.945 37.9166 192.122 38.1073 193.306C38.2717 194.35 38.732 195.306 39.0674 196.299C39.5278 197.673 39.5343 198.711 39.2187 200.11C39.1463 200.42 39.5606 200.584 39.7448 200.325C41.9806 197.148 37.1275 193.584 39.1003 190.185Z" fill="white"/>
<path d="M42.4406 189.021C42.6444 188.806 42.3354 188.515 42.1118 188.705C37.7979 192.37 43.427 197.376 41.3621 201.661C41.1517 202.098 41.7567 202.674 42.1183 202.225C45.4327 198.098 38.6265 193.104 42.4406 189.028V189.021Z" fill="white"/>
<path d="M45.5707 197.857C44.8736 195.534 43.5913 192.832 45.472 190.692C45.689 190.446 45.3405 190.085 45.0906 190.325C43.8477 191.553 43.5518 193.098 43.7688 194.769C43.9201 195.921 44.3475 196.99 44.6237 198.111C45.0775 199.927 44.5119 200.94 44.1305 202.655C44.0319 203.098 44.6171 203.332 44.8802 202.959C45.9784 201.415 46.0902 199.611 45.5641 197.857H45.5707Z" fill="white"/>
</g>
<path d="M208.119 223.353L68.2461 222.726C64.432 222.707 61.3544 219.719 61.3741 216.048L62.183 49.2355C62.2027 45.5644 65.3066 42.6022 69.1207 42.6212L208.994 43.2478C212.808 43.2668 215.885 46.2543 215.866 49.9254L215.057 216.738C215.037 220.409 211.933 223.372 208.119 223.353Z" fill="#E6DBDB"/>
<path d="M207.776 51.1869L67.3125 50.5498L66.4888 218.798L206.952 219.435L207.776 51.1869Z" fill="white"/>
<path d="M207.785 49.1814L70.2681 48.5576L69.4443 216.805L206.961 217.429L207.785 49.1814Z" fill="white"/>
<path d="M193.081 99.5459H173.682V80.874H193.081V99.5459ZM174.813 98.4573H191.957V81.9564H174.813V98.4573Z" fill="#D1DBDB"/>
<path d="M125.703 80.874H85.3979V84.5071H125.703V80.874Z" fill="#757882"/>
<path d="M162.444 88.3945H85.3984V89.6288H162.444V88.3945Z" fill="#D1DBDB"/>
<path d="M162.444 93.3506H85.3984V94.5848H162.444V93.3506Z" fill="#D1DBDB"/>
<path d="M162.444 98.3125H85.3984V99.5467H162.444V98.3125Z" fill="#D1DBDB"/>
<path d="M193.082 136.221H173.682V117.549H193.082V136.221ZM174.813 135.132H191.957V118.631H174.813V135.132Z" fill="#D1DBDB"/>
<path d="M125.702 117.549H85.3975V121.182H125.702V117.549Z" fill="#757882"/>
<path d="M162.443 125.066H85.3979V126.301H162.443V125.066Z" fill="#D1DBDB"/>
<path d="M162.443 130.022H85.3979V131.257H162.443V130.022Z" fill="#D1DBDB"/>
<path d="M162.443 134.978H85.3979V136.212H162.443V134.978Z" fill="#D1DBDB"/>
<path d="M193.082 172.893H173.682V154.221H193.082V172.893ZM174.813 171.804H191.957V155.303H174.813V171.804Z" fill="#D1DBDB"/>
<path d="M125.702 154.221H85.3975V157.854H125.702V154.221Z" fill="#757882"/>
<path d="M162.443 161.741H85.3975V162.975H162.443V161.741Z" fill="#D1DBDB"/>
<path d="M162.443 166.696H85.3975V167.931H162.443V166.696Z" fill="#D1DBDB"/>
<path d="M162.443 171.652H85.3975V172.887H162.443V171.652Z" fill="#D1DBDB"/>
<path d="M172.99 85.3634C172.99 85.3634 179.33 88.9775 182.979 95.9589C182.979 95.9589 191.489 82.8949 200.866 79.6795L198.433 76.5654C198.433 76.5654 190.358 81.2492 183.407 92.9018C183.407 92.9018 180.625 86.2622 175.68 82.3316L172.99 85.3634Z" fill="#417EE3"/>
<path d="M177.442 121.342C177.442 121.342 183.781 124.956 187.431 131.937C187.431 131.937 195.94 118.873 205.318 115.658L202.885 112.544C202.885 112.544 194.809 117.228 187.858 128.88C187.858 128.88 185.077 122.241 180.132 118.31L177.442 121.342Z" fill="#417EE3"/>
<path d="M205.719 141.683C205.719 141.683 197.808 130.315 193.567 127.568C193.567 127.568 191.489 129.765 190.778 131.48C190.778 131.48 198.689 140.917 200.471 144.348L205.719 141.689V141.683Z" fill="#9BA4A7"/>
<path d="M217.155 221.929C217.155 221.929 216.425 223.827 214.268 225.771C212.111 227.714 210.836 229.302 211.835 229.701C212.835 230.1 220.825 227.593 222.699 226.853C224.58 226.112 226.013 226.03 222.482 220.536L217.149 221.922L217.155 221.929Z" fill="#9BA4A7"/>
<path d="M208.126 181.102C208.126 181.102 204.851 203.971 217.155 221.927L222.488 220.541C222.488 220.541 213.551 199.394 215.768 187.02L218.977 186.546C218.977 186.546 224.948 202.11 249.549 202.11V196.483C249.549 196.483 225.211 196.901 225.487 175.374L208.126 181.102Z" fill="#4E4C4C"/>
<path d="M219.068 221.426C207.494 206.267 212.157 180.518 212.157 180.518V179.771L208.126 181.101C208.126 181.101 204.851 203.969 217.155 221.926L219.075 221.426H219.068Z" fill="#4E4C4C"/>
<path d="M249.548 199.532C231.582 201.203 221.902 187.101 221.902 187.101C223.382 185.025 222.941 181.468 222.941 181.468C222.106 183.841 215.767 187.012 215.767 187.012L218.976 186.538C218.976 186.538 224.947 202.102 249.548 202.102V199.526V199.532Z" fill="#4E4C4C"/>
<path d="M206.278 157.087C206.278 157.087 199.926 163.986 183.578 170.253L185.412 173.829C185.412 173.829 199.459 172.031 206.278 164.683C206.278 164.683 206.186 175.322 208.133 181.095C208.133 181.095 223.139 179.475 225.493 175.367C225.493 175.367 219.102 158.6 212.519 151.271L206.285 157.081L206.278 157.087Z" fill="#9BA4A7"/>
<path d="M205.318 156.001C209.789 156.001 213.413 152.513 213.413 148.21C213.413 143.906 209.789 140.418 205.318 140.418C200.847 140.418 197.223 143.906 197.223 148.21C197.223 152.513 200.847 156.001 205.318 156.001Z" fill="#FFC99C"/>
<path d="M249.548 202.111C249.548 202.111 251.79 203.282 253.98 205.01C256.17 206.738 257.906 209.283 258.366 207.732C258.827 206.181 255.696 198.352 255.124 196.491C254.756 195.294 249.548 196.491 249.548 196.491V202.118V202.111Z" fill="#9BA4A7"/>
<path d="M197.427 146.469C197.427 146.469 198.051 148.209 201.681 148.209C205.311 148.209 207.712 148.962 208.027 150.69C208.027 150.69 209.165 149.133 209.875 149.222C210.585 149.311 210.539 152.165 209.033 152.558L211.473 153.564C211.473 153.564 214.972 149.317 213.407 144.209C212.243 140.424 209.237 140.424 209.237 140.424C209.237 140.424 205.844 138.038 202.674 139.196C199.505 140.354 196.572 144.386 195.533 142.399C195.533 142.399 195.086 146.443 197.42 146.475L197.427 146.469Z" fill="#4E4C4C"/>
<path d="M183.577 170.254C183.577 170.254 180.224 168.235 178.81 168.742C177.396 169.242 181.197 171.134 181.197 171.134C181.197 171.134 177.231 173.932 175.311 174.907C173.391 175.888 180.105 177.698 185.419 173.831L183.584 170.254H183.577Z" fill="#FFC99C"/>
<path d="M190.779 131.481C190.779 131.481 185.827 131.778 185.255 131.012C184.683 130.246 187.142 129.702 188.911 129.696C188.911 129.696 190.601 122.892 192.107 122.366C195.119 121.309 193.567 127.575 193.567 127.575C193.567 127.575 191.186 130.519 190.779 131.487V131.481Z" fill="#FFC99C"/>
<path d="M197.427 146.469C197.427 146.469 198.052 148.209 201.682 148.209C205.312 148.209 207.712 148.963 208.028 150.69C208.028 150.69 209.165 149.133 209.876 149.222C210.586 149.311 210.54 152.165 209.034 152.558L211.473 153.564C211.473 153.564 212.578 152.222 213.269 150.146C213.19 148.937 213.058 147.779 212.848 147.171C212.295 145.576 210.974 146.216 208.988 146.216C207.002 146.216 207.114 143.456 207.114 143.456C207.114 143.456 204.687 145.899 201.379 145.791C198.801 145.709 196.704 143.696 195.895 142.81C195.757 142.722 195.638 142.589 195.54 142.393C195.54 142.393 195.093 146.437 197.427 146.469Z" fill="#4E4C4C"/>
<path d="M208.441 159.861C208.441 159.861 207.56 160.975 199.399 166.19C194.592 169.266 188.601 171.064 184.485 172.032L185.412 173.83C185.412 173.83 199.459 172.032 206.278 164.684C206.278 164.684 206.186 175.324 208.132 181.096C208.132 181.096 209.829 180.913 212.163 180.514C208.553 171.463 208.448 159.854 208.448 159.854L208.441 159.861Z" fill="#9BA4A7"/>
<path d="M219.239 224.498C219.733 223.903 219.522 222.694 219.069 221.428L217.148 221.928C217.148 221.928 216.418 223.827 214.261 225.77C212.104 227.713 210.829 229.302 211.828 229.7C212.118 229.814 212.999 229.688 214.15 229.428C215.491 226.744 218.22 225.706 219.233 224.498H219.239Z" fill="#9BA4A7"/>
<path d="M258.366 207.724C258.504 207.262 258.32 206.256 257.992 205.015C256.078 203.408 253.579 201.332 252.632 200.604C252.145 200.23 250.968 199.863 249.548 199.534V202.11C249.548 202.11 251.79 203.281 253.98 205.009C256.17 206.737 257.906 209.282 258.366 207.731V207.724Z" fill="#9BA4A7"/>
<path d="M143.154 32.9395C143.154 32.9395 164.507 37.0283 171.622 61.3587H166.986C166.986 61.3587 159.055 44.2945 148.04 42.94H120.776C120.776 42.94 126.773 35.2814 134.96 34.1104L143.148 32.9395H143.154Z" fill="#9BA4A7"/>
<path d="M162.081 50.7502C155.879 44.0473 151.684 40.5597 147.206 40.2876C142.721 40.0091 138.334 40.3825 136.335 38.0849C135.415 37.0279 134.474 35.5911 133.731 34.3379C126.189 36.0468 120.79 42.9333 120.79 42.9333H148.054C159.069 44.2878 167 61.352 167 61.352H168.459C167.48 58.5671 165.592 54.5352 162.087 50.7502H162.081Z" fill="#9BA4A7"/>
<path d="M147.64 31.1214C147.357 31.0201 147.054 31.0265 146.772 31.1214C146.772 31.1214 146.772 31.1151 146.772 31.1088C146.772 26.6718 143.036 23.083 138.433 23.083C133.83 23.083 130.095 26.6781 130.095 31.1088C130.095 31.1088 130.095 31.1151 130.095 31.1214C129.812 31.0328 129.516 31.0265 129.227 31.1214C128.477 31.3873 128.128 32.2924 128.451 33.1468C128.773 34.0013 129.648 34.476 130.404 34.2102C130.502 34.1722 130.594 34.1279 130.687 34.0646C131.91 37.0331 134.915 39.1282 138.433 39.1282C141.951 39.1282 144.957 37.0268 146.18 34.0646C146.265 34.1216 146.357 34.1722 146.463 34.2102C147.212 34.476 148.087 34.0013 148.416 33.1468C148.738 32.2924 148.396 31.3873 147.64 31.1214Z" fill="#FFC99C"/>
<path d="M132.462 29.883C132.462 27.5474 133.402 25.4271 134.928 23.832C132.074 25.1106 130.095 27.8829 130.095 31.1109C130.095 31.1109 130.095 31.1172 130.095 31.1236C129.812 31.035 129.516 31.0286 129.227 31.1236C128.477 31.3894 128.128 32.2945 128.451 33.149C128.773 34.0035 129.648 34.4782 130.404 34.2123C130.502 34.1744 130.594 34.1301 130.687 34.0731C131.91 37.0416 134.915 39.1367 138.433 39.1367C139.281 39.1367 140.097 39.0101 140.866 38.7885C136.151 38.3581 132.462 34.5415 132.462 29.8893V29.883Z" fill="#EAAE81"/>
<path d="M140.872 26.3879C140.872 26.3879 137.999 30.6666 133.888 31.1033L134.783 28.7994C134.783 28.7994 131.179 29.9767 130.706 32.2932C130.706 32.2932 129.903 31.1603 129.239 31.1223C129.239 31.1223 128.345 19.3242 140.103 20.9382L139.439 19.6533C139.439 19.6533 143.93 20.0521 145.37 23.989C145.37 23.989 148.264 24.9764 147.652 31.1286C147.652 31.1286 146.863 30.7299 146.133 31.7869C146.133 31.7869 145.232 26.9195 140.885 26.3942L140.872 26.3879Z" fill="#4E4C4C"/>
<path d="M166.986 61.352C166.986 61.352 165.73 64.1243 165.934 64.9472C166.131 65.77 167.354 65.2826 168.025 63.8458C168.025 63.8458 169.951 63.9534 170.984 65.8776C172.016 67.8018 172.865 69.2259 173.325 68.017C173.779 66.808 174.318 64.6687 171.622 61.3457H166.986V61.352Z" fill="#FFC99C"/>
<path d="M123.505 42.3201C123.505 42.3201 118.264 41.5163 117.962 42.5859C117.659 43.6556 117.343 45.5671 118.435 45.9216C119.527 46.2697 124.873 46.2634 125.07 45.1684C125.268 44.0734 125.504 42.548 123.505 42.3201Z" fill="#FFC99C"/>
<path d="M138.433 25.2732C135.414 24.9631 132.389 25.9695 132.389 25.9695C134.066 22.5199 136.664 21.2224 137.828 20.792C128.457 20.9059 129.226 31.1217 129.226 31.1217C129.89 31.166 130.693 32.2926 130.693 32.2926C131.166 29.976 134.77 28.7988 134.77 28.7988L133.876 31.1027C137.4 29.1469 138.426 25.2732 138.426 25.2732H138.433Z" fill="#4E4C4C"/>
<path d="M133.808 216.043L124.74 214.321V213.467L122.497 213.891L120.248 213.467V214.321L111.186 216.043C111.186 216.043 98.6722 219.847 99.2509 225.208C99.7836 230.12 114.027 231.556 122.491 229.164C130.954 231.556 145.198 230.12 145.731 225.208C146.309 219.853 133.795 216.043 133.795 216.043H133.808Z" fill="#4E4C4C"/>
<path d="M145.744 225.208C145.758 225.075 145.758 224.942 145.758 224.809C141.95 227.948 132.441 227.505 131.56 224.676C130.613 221.625 135.676 220.701 135.676 220.701C135.676 220.701 124.826 220.701 120.795 220.701C116.764 220.701 113.239 221.53 113.239 221.53L122.511 223.043L125.214 226.986C125.214 226.986 104.177 225.872 104.368 223.043C104.559 220.207 119.776 214.416 119.776 214.416L111.181 216.049C111.181 216.049 98.6664 219.853 99.2451 225.214C99.7777 230.126 114.021 231.563 122.485 229.17C130.948 231.563 145.192 230.126 145.725 225.214L145.744 225.208Z" fill="#4E4C4C"/>
<path d="M160.58 184.275L159.955 182.396C159.955 182.396 157.581 179.149 158.449 178.364C159.317 177.579 159.383 179.516 161.191 180.218C163 180.921 170.483 177.389 170.957 178.655C171.378 179.775 164.979 182.396 163.006 184.763L160.573 184.269L160.58 184.275Z" fill="#FFC99C"/>
<path d="M121.991 189.162C121.991 189.162 113.179 192.162 111.982 192.922C110.161 194.086 103.072 207.916 103.821 209.904C105.275 213.752 117.322 215.575 117.322 215.575H132.605L135.045 197.207C135.045 197.207 148.861 197.441 150.281 197.219C153.648 196.694 162.993 184.769 162.993 184.769C162.993 184.769 160.849 182.218 159.935 182.402C159.935 182.402 149.821 191.858 148.361 192.035C146.901 192.213 125.542 189.206 124.332 189.181C123.122 189.156 121.971 189.162 121.971 189.162H121.991Z" fill="#9BA4A7"/>
<path d="M112.449 192.68C112.245 192.775 112.088 192.857 111.982 192.92C110.161 194.085 103.072 207.915 103.821 209.902C104.558 211.864 108.043 213.295 111.292 214.231L112.403 212.035C112.403 212.035 105.689 208.421 106.123 207.218C106.511 206.155 111.068 195.648 112.449 192.68Z" fill="#9BA4A7"/>
<path d="M124.93 189.092C124.93 190.193 123.838 191.079 122.497 191.079C121.155 191.079 120.063 190.187 120.063 189.092C120.063 187.997 121.155 187.104 122.497 187.104C123.838 187.104 124.93 187.997 124.93 189.092Z" fill="#D89A71"/>
<path d="M131.717 181.167C131.434 181.066 131.132 181.072 130.849 181.167C130.849 181.167 130.849 181.161 130.849 181.155C130.849 176.718 127.114 173.129 122.51 173.129C117.907 173.129 114.172 176.724 114.172 181.155C114.172 181.155 114.172 181.161 114.172 181.167C113.889 181.079 113.593 181.072 113.304 181.167C112.554 181.433 112.206 182.338 112.528 183.193C112.85 184.047 113.725 184.522 114.481 184.256C114.58 184.218 114.672 184.174 114.764 184.117C115.987 187.085 118.992 189.18 122.51 189.18C126.028 189.18 129.034 187.079 130.257 184.117C130.342 184.174 130.434 184.224 130.54 184.256C131.289 184.522 132.164 184.047 132.493 183.193C132.815 182.338 132.473 181.433 131.717 181.167Z" fill="#FFC99C"/>
<path d="M125.701 188.37C119.855 188.37 115.113 183.806 115.113 178.179C115.113 177.901 115.133 177.629 115.159 177.356C114.528 178.483 114.166 179.774 114.166 181.148C114.166 181.148 114.166 181.154 114.166 181.16C113.884 181.072 113.588 181.066 113.298 181.16C112.549 181.426 112.2 182.331 112.522 183.186C112.845 184.04 113.719 184.515 114.476 184.249C114.574 184.211 114.666 184.167 114.758 184.11C115.981 187.079 118.987 189.174 122.505 189.174C123.833 189.174 125.089 188.876 126.201 188.338C126.03 188.344 125.865 188.363 125.694 188.363L125.701 188.37Z" fill="#EAB186"/>
<path d="M117.934 177.268C117.934 177.268 119.078 179.395 124.306 179.224C129.534 179.053 130.139 180.686 130.198 182.401C130.198 182.401 130.454 181.18 131.717 181.167C131.717 181.167 132.408 176.458 128.383 173.705C122.3 169.54 117.217 174.243 117.217 174.243C117.217 174.243 112.627 175.312 113.311 181.173C113.311 181.173 114.573 181.135 114.994 182.066C114.994 182.066 115.172 178.623 117.94 177.274L117.934 177.268Z" fill="#4E4C4C"/>
<path d="M135.32 199.881H109.7C109.47 199.881 109.253 199.931 109.049 200.039C108.602 200.273 108.319 200.716 108.319 201.21V214.249C108.319 214.736 108.595 215.186 109.049 215.42C109.246 215.521 109.47 215.578 109.7 215.578H135.32C135.787 215.578 136.214 215.356 136.471 214.983C136.622 214.768 136.695 214.515 136.695 214.255V201.216C136.695 200.862 136.55 200.526 136.293 200.28C136.037 200.026 135.688 199.894 135.32 199.894V199.881Z" fill="#D1DBDB"/>
<path d="M136.274 217.166H108.746C108.674 217.166 108.602 217.147 108.536 217.109C108.404 217.033 108.319 216.894 108.319 216.736V215.989C108.319 215.869 108.365 215.767 108.444 215.685C108.523 215.609 108.628 215.559 108.746 215.559H136.274C136.392 215.559 136.497 215.609 136.576 215.685C136.655 215.761 136.701 215.869 136.701 215.989V216.736C136.701 216.837 136.662 216.932 136.602 217.008C136.524 217.103 136.405 217.16 136.274 217.16V217.166Z" fill="#ADBEE9"/>
<path d="M122.497 210.338C123.997 210.338 125.213 209.167 125.213 207.723C125.213 206.28 123.997 205.109 122.497 205.109C120.997 205.109 119.781 206.28 119.781 207.723C119.781 209.167 120.997 210.338 122.497 210.338Z" fill="white"/>
<path d="M122.498 229.164C122.498 229.164 124.76 228.581 126.713 231.006C128.659 233.43 131.395 233.43 131.553 232.158C131.711 230.892 128.824 226.423 127.837 225.208C126.851 223.993 125.74 222.6 124.931 223.176C124.128 223.752 122.511 223.644 122.511 223.644C122.511 223.644 123.504 225.455 122.498 229.164Z" fill="#9BA4A7"/>
<path d="M125.351 177.932C121.379 178.356 119.229 175.812 119.229 175.812C116.69 176.344 115.257 177.673 115.257 177.673C115.71 176.078 116.368 174.951 116.736 174.4C115.585 174.862 112.758 176.476 113.304 181.167C113.304 181.167 114.566 181.129 114.987 182.059C114.987 182.059 115.165 178.616 117.933 177.268C117.933 177.268 119.077 179.394 124.305 179.223C129.533 179.053 130.138 180.686 130.197 182.401C130.546 179.844 129.316 177.514 125.351 177.939V177.932Z" fill="#4E4C4C"/>
<path d="M150.295 197.218C153.662 196.693 163.007 184.768 163.007 184.768C163.007 184.768 162.638 184.331 162.145 183.831C159.015 187.268 151.216 195.73 150.229 195.971C148.993 196.268 135.295 195.395 135.295 195.395L135.052 197.205C135.052 197.205 148.868 197.439 150.288 197.218H150.295Z" fill="#9BA4A7"/>
<path d="M126.713 231.006C128.659 233.43 131.395 233.43 131.553 232.158C131.572 231.987 131.539 231.752 131.46 231.487C131.059 231.569 130.579 231.601 130.04 231.487C128.547 231.183 128.001 229.069 126.443 228.018C125.674 227.499 124.201 227.176 122.905 226.986C122.846 227.619 122.727 228.341 122.504 229.164C122.504 229.164 124.766 228.581 126.719 231.006H126.713Z" fill="#9BA4A7"/>
<path d="M153.018 168.661C153.018 168.661 159.357 172.275 163.007 179.257C163.007 179.257 171.516 166.193 180.894 162.977L178.46 159.863C178.46 159.863 170.385 164.547 163.434 176.2C163.434 176.2 160.652 169.56 155.707 165.629L153.018 168.661Z" fill="#417EE3"/>
<path d="M30.7622 206.441L35.4443 219.967C35.4443 221.202 37.9235 222.195 40.9814 222.195C44.0392 222.195 46.5184 221.195 46.5184 219.967L51.2006 206.441H30.749H30.7622Z" fill="#417EE3"/>
<path d="M51.2064 206.442C51.2064 207.676 46.6295 208.67 40.9807 208.67C35.3318 208.67 30.7549 207.67 30.7549 206.442C30.7549 205.214 35.3318 204.214 40.9807 204.214C46.6295 204.214 51.2064 205.214 51.2064 206.442Z" fill="#8096C1"/>
<path d="M32.1304 207.555C33.8993 208.22 37.2005 208.669 40.9818 208.669C44.763 208.669 48.0642 208.22 49.8331 207.555C48.0642 206.891 44.763 206.441 40.9818 206.441C37.2005 206.441 33.8993 206.891 32.1304 207.555Z" fill="white"/>
<path d="M34.7078 219.848C32.0445 219.848 29.6377 218.069 29.0393 215.468C28.3488 212.461 30.3282 209.474 33.4518 208.803L33.7346 210.037C31.3146 210.55 29.7824 212.866 30.3216 215.189C30.8543 217.518 33.2545 218.993 35.6745 218.474L35.9573 219.708C35.5364 219.797 35.1156 219.841 34.7013 219.841L34.7078 219.848Z" fill="#417EE3"/>
<path d="M39.1003 190.185C39.1792 190.046 38.9754 189.875 38.8636 190.008C38.0481 190.945 37.9166 192.122 38.1073 193.306C38.2717 194.35 38.732 195.306 39.0674 196.299C39.5278 197.673 39.5343 198.711 39.2187 200.11C39.1463 200.42 39.5606 200.584 39.7448 200.325C41.9806 197.148 37.1275 193.584 39.1003 190.185Z" fill="white"/>
<path d="M42.4406 189.021C42.6444 188.806 42.3354 188.515 42.1118 188.705C37.7979 192.37 43.427 197.376 41.3621 201.661C41.1517 202.098 41.7567 202.674 42.1183 202.225C45.4327 198.098 38.6265 193.104 42.4406 189.028V189.021Z" fill="white"/>
<path d="M45.5707 197.857C44.8736 195.534 43.5913 192.832 45.472 190.692C45.689 190.446 45.3405 190.085 45.0906 190.325C43.8477 191.553 43.5518 193.098 43.7688 194.769C43.9201 195.921 44.3475 196.99 44.6237 198.111C45.0775 199.927 44.5119 200.94 44.1305 202.655C44.0319 203.098 44.6171 203.332 44.8802 202.959C45.9784 201.415 46.0902 199.611 45.5641 197.857H45.5707Z" fill="white"/>
</g>
<defs>
<clipPath id="clip0_2332_8962">
<rect width="277.227" height="233" fill="white" transform="translate(0.00683594)"/>
</clipPath>
<clipPath id="clip1_2332_8962">
<rect width="277.227" height="233" fill="white" transform="translate(0.00683594)"/>
</clipPath>
</defs>
</svg>
